<svg id="Capa_1" enable-background="new 0 0 512 512" height="512" viewBox="0 0 512 512" width="512" xmlns="http://www.w3.org/2000/svg"><g><path d="m482.739 130.755h-453.489c-16.132 0-29.25 13.129-29.25 29.261v191.973c0 16.132 13.118 29.255 29.25 29.255h453.489c16.132 0 29.261-13.123 29.261-29.255v-191.973c0-16.132-13.129-29.261-29.261-29.261z" fill="#e6b91e"/><g clip-rule="evenodd" fill="#010101" fill-rule="evenodd"><path d="m73.719 183.804h37.889v146.094h-37.889z"/><path d="m192.475 183.804-8.779 68.268-5.386-37.106c-1.626-11.897-3.112-22.308-4.598-31.163h-49.148v146.094h33.21l.146-96.448 13.95 96.448h23.653l13.312-98.572.07 98.572h33.135v-146.093z"/><path d="m300.961 329.898c9.066 0 15.862-.497 20.401-1.486 4.452-.989 8.282-2.69 11.324-5.241 3.047-2.485 5.246-5.948 6.445-10.341 1.275-4.387 1.983-13.166 1.983-26.268v-51.271c0-13.809-.567-23.086-1.345-27.829-.848-4.673-2.971-8.995-6.375-12.815-3.328-3.83-8.282-6.591-14.728-8.282-6.445-1.702-17.067-2.561-35.409-2.561h-28.256v146.094zm.357-119.745c1.48.848 2.48 2.199 2.907 4.106.421 1.842.638 6.089.638 12.675v56.577c0 9.779-.638 15.727-1.918 17.926-1.27 2.194-4.598 3.252-10.054 3.252v-95.876c4.105 0 6.935.421 8.427 1.34z"/><path d="m353.999 183.804v146.094h34.139l2.404-9.276c3.042 3.755 6.445 6.51 10.196 8.428 12.381 6.047 33.402 1.883 37.397-13.107 1.205-4.311 1.772-10.827 1.772-19.542v-40.995c0-8.848-.146-14.591-.567-17.276-1.052-6.706-5.747-12.263-11.902-14.88-7.834-3.331-19.018-3.367-26.771.292-3.679 1.696-7.083 4.317-10.125 7.785v-47.522h-36.543zm49.364 110.69c0 7.013-.357 11.54-1.064 13.382-.708 1.842-3.755 2.755-6.094 2.755-2.258 0-3.755-.843-4.527-2.68-.708-1.772-1.135-5.878-1.135-12.323v-38.597c0-6.662.351-10.768.994-12.469.708-1.626 2.193-2.474 4.387-2.474 2.334 0 5.446.994 6.235 2.836.778 1.907 1.205 5.948 1.205 12.108v37.462z"/></g></g></svg>