<svg height="511pt" viewBox="0 -44 511.99998 511" width="511pt" xmlns="http://www.w3.org/2000/svg"><path d="m357.378906 245.441406c-13.214844-69.71875-74.621094-121.921875-147.378906-121.921875-73.378906 0-135.527344 53.011719-147.816406 124.386719-36.609375 11.867188-62.183594 46.285156-62.183594 85.613281 0 49.628907 40.375 90 90 90h286c49.625 0 90-40.371093 90-90 0-56.777343-52.402344-99.917969-108.621094-88.078125zm0 0" fill="#ee3616"/><path d="m466 333.519531c0 49.632813-40.371094 90-90 90h-166v-300c72.761719 0 134.171875 52.203125 147.378906 121.921875 56.222656-11.839844 108.621094 31.300782 108.621094 88.078125zm0 0" fill="#cb0010"/><path d="m262.644531 275.613281-76-45c-9.984375-5.910156-22.644531 1.296875-22.644531 12.90625v90c0 11.597657 12.652344 18.824219 22.644531 12.910157l76-45c9.789063-5.796876 9.800781-20.011719 0-25.816407zm0 0" fill="#e0f4fe"/><path d="m262.640625 301.429688-52.640625 31.171874v-88.160156l52.640625 31.167969c9.808594 5.8125 9.789063 20.023437 0 25.820313zm0 0" fill="#bcdcfe"/><g fill="#0c3f60"><path d="m361.363281 115.523438c-6.03125-5.679688-15.523437-5.394532-21.203125.632812-5.683594 6.03125-5.398437 15.523438.628906 21.203125 10.78125 10.15625 20.285157 21.621094 28.257813 34.082031 4.464844 6.984375 13.738281 9.019532 20.71875 4.554688 6.976563-4.460938 9.015625-13.738282 4.550781-20.71875-9.296875-14.535156-20.382812-27.910156-32.953125-39.753906zm0 0"/><path d="m387.808594 58.96875c-6.421875-5.230469-15.871094-4.269531-21.105469 2.15625-5.230469 6.421875-4.265625 15.871094 2.15625 21.105469 23.488281 19.132812 42.90625 42.179687 57.71875 68.5 4.0625 7.214843 13.207031 9.777343 20.429687 5.714843 7.21875-4.0625 9.777344-13.210937 5.714844-20.429687-16.664062-29.609375-38.503906-55.53125-64.914062-77.046875zm0 0"/><path d="m510.3125 116.394531c-22.882812-44.117187-56.132812-83.167969-96.15625-112.929687-6.644531-4.941406-16.042969-3.5625002-20.984375 3.085937-4.945313 6.648438-3.5625 16.042969 3.085937 20.988281 36.390626 27.0625 66.621094 62.5625 87.421876 102.667969 3.816406 7.351563 12.867187 10.222657 20.222656 6.410157 7.355468-3.8125 10.226562-12.867188 6.410156-20.222657zm0 0"/></g></svg>