<?xml version="1.0" encoding="UTF-8"?>
<svg id="Layer_2" xmlns="http://www.w3.org/2000/svg" viewBox="0 0 50 50">
    <path fill="#f1f2f2" d="m25,1.5C12.04,1.5,1.5,12.04,1.5,25s10.54,23.5,23.5,23.5V1.5Z"/>
    <path fill="#f1f2f2" fill-opacity="0.2" d="m48.5,25c0-12.96-10.54-23.5-23.5-23.5v47c12.96,0,23.5-10.54,23.5-23.5Z"/>
    <path id="outline" fill="#fff"
          d="m25,3c12.13,0,22,9.87,22,22s-9.87,22-22,22S3,37.13,3,25,12.87,3,25,3M25,0C11.19,0,0,11.19,0,25s11.19,25,25,25,25-11.19,25-25S38.81,0,25,0h0Z"/>
</svg>