<?xml version="1.0" encoding="utf-8"?>
<!-- Generator: Adobe Illustrator 27.1.1, SVG Export Plug-In . SVG Version: 6.00 Build 0)  -->
<svg version="1.1" xmlns="http://www.w3.org/2000/svg" xmlns:xlink="http://www.w3.org/1999/xlink" x="0px" y="0px"
	 viewBox="0 0 21.8 23.1" style="enable-background:new 0 0 21.8 23.1;" xml:space="preserve">
<style type="text/css">
	.st0{display:none;}
	.st1{display:inline;}
	.st2{display:none;fill:#4B9ED7;}
	.st3{display:none;fill:#FFFFFF;}
	.st4{fill:#FFFFFF;}
	.st5{fill:none;stroke:#FFFFFF;stroke-width:2;stroke-linecap:round;stroke-miterlimit:10;}
</style>
<g id="Layer_1" class="st0">
	<path class="st1" d="M1.7,4.9h2v-2C2.6,2.9,1.7,3.8,1.7,4.9z M1.7,12.9h2v-2h-2V12.9z M5.7,20.8h2v-2h-2V20.8z M1.7,8.9h2v-2h-2
		V8.9z M11.7,2.9h-2v2h2V2.9z M17.7,2.9v2h2C19.7,3.8,18.8,2.9,17.7,2.9z M3.7,20.8v-2h-2C1.7,20,2.6,20.8,3.7,20.8z M1.7,16.9h2v-2
		h-2V16.9z M7.7,2.9h-2v2h2V2.9z M9.7,20.8h2v-2h-2V20.8z M17.7,12.9h2v-2h-2V12.9z M17.7,20.8c1.1,0,2-0.9,2-2h-2V20.8z M17.7,8.9
		h2v-2h-2V8.9z M17.7,16.9h2v-2h-2V16.9z M13.7,20.8h2v-2h-2V20.8z M13.7,4.9h2v-2h-2V4.9z M5.7,16.9h10v-10h-10V16.9z M7.7,8.9h6v6
		h-6V8.9z"/>
</g>
<g id="Layer_2">
	<path class="st2" d="M1.7,4.9h2v-2C2.6,2.9,1.7,3.8,1.7,4.9z M1.7,12.9h2v-2h-2V12.9z M5.7,20.8h2v-2h-2V20.8z M1.7,8.9h2v-2h-2
		V8.9z M3.7,20.8v-2h-2C1.7,20,2.6,20.8,3.7,20.8z M1.7,16.9h2v-2h-2V16.9z M9.7,20.8h2v-2h-2V20.8z M17.7,20.8c1.1,0,2-0.9,2-2h-2
		V20.8z M13.7,20.8h2v-2h-2V20.8z M5.7,16.9h10v-10h-10V16.9z M7.7,8.9h6v6h-6V8.9z"/>
	<polygon class="st0" points="5.7,6.9 15.7,16.9 5.7,16.9 	"/>
	<path class="st3" d="M1.7,4.9h2v-2C2.6,2.9,1.7,3.8,1.7,4.9z M1.7,12.9h2v-2h-2V12.9z M5.7,20.8h2v-2h-2V20.8z M1.7,8.9h2v-2h-2
		V8.9z M11.7,2.9h-2v2h2V2.9z M17.7,2.9v2h2C19.7,3.8,18.8,2.9,17.7,2.9z M3.7,20.8v-2h-2C1.7,20,2.6,20.8,3.7,20.8z M1.7,16.9h2v-2
		h-2V16.9z M7.7,2.9h-2v2h2V2.9z M9.7,20.8h2v-2h-2V20.8z M17.7,12.9h2v-2h-2V12.9z M17.7,20.8c1.1,0,2-0.9,2-2h-2V20.8z M17.7,8.9
		h2v-2h-2V8.9z M17.7,16.9h2v-2h-2V16.9z M13.7,20.8h2v-2h-2V20.8z M13.7,4.9h2v-2h-2V4.9z M5.7,16.9h10v-10h-10V16.9z M7.7,8.9h6v6
		h-6V8.9z"/>
	<path class="st4" d="M9.7,20.8v-2h2v2H9.7z M5.7,20.8h2v-2h-2V20.8z M19.2,20.1l-1.4-1.3h-0.1v2C18.3,20.8,18.8,20.5,19.2,20.1z
		 M5.7,16.9h10v-0.2l-2-2v0.2h-6v-6h0.1l-2-2H5.7V16.9z M15.7,20.8v-2h-2v2H15.7z M3.7,10.9h-2v2h2V10.9z M3.7,20.8v-2h-2
		C1.7,20,2.6,20.8,3.7,20.8z M3.7,4.9L2.3,3.5C1.9,3.8,1.7,4.3,1.7,4.9L3.7,4.9L3.7,4.9z M1.7,16.9h2v-2h-2V16.9z M3.7,6.9h-2v2h2
		V6.9z"/>
	<g>
		<g>
			<path class="st5" d="M12.1,4c10.1-2.1,9.7,7.5,5.6,9.8"/>
			<g>
				<polygon class="st4" points="14.1,7.1 7.3,5.6 12.1,0.5 				"/>
			</g>
		</g>
	</g>
</g>
</svg>
