<?xml version="1.0" encoding="utf-8"?>
<!-- Generator: Adobe Illustrator 27.1.1, SVG Export Plug-In . SVG Version: 6.00 Build 0)  -->
<svg version="1.1" id="Layer_1" xmlns="http://www.w3.org/2000/svg" xmlns:xlink="http://www.w3.org/1999/xlink" x="0px" y="0px"
	 viewBox="0 0 21.8 23.1" style="enable-background:new 0 0 21.8 23.1;" xml:space="preserve">
<path d="M1.7,4.9h2v-2C2.6,2.9,1.7,3.8,1.7,4.9z M1.7,12.9h2v-2h-2V12.9z M5.7,20.8h2v-2h-2V20.8z M1.7,8.9h2v-2h-2V8.9z M11.7,2.9
	h-2v2h2V2.9z M17.7,2.9v2h2C19.7,3.8,18.8,2.9,17.7,2.9z M3.7,20.8v-2h-2C1.7,20,2.6,20.8,3.7,20.8z M1.7,16.9h2v-2h-2V16.9z
	 M7.7,2.9h-2v2h2V2.9z M9.7,20.8h2v-2h-2V20.8z M17.7,12.9h2v-2h-2V12.9z M17.7,20.8c1.1,0,2-0.9,2-2h-2V20.8z M17.7,8.9h2v-2h-2
	V8.9z M17.7,16.9h2v-2h-2V16.9z M13.7,20.8h2v-2h-2V20.8z M13.7,4.9h2v-2h-2V4.9z M5.7,16.9h10v-10h-10V16.9z M7.7,8.9h6v6h-6V8.9z"
	/>
</svg>
