<?xml version="1.0" encoding="utf-8"?>
<!-- Generator: Adobe Illustrator 27.1.1, SVG Export Plug-In . SVG Version: 6.00 Build 0)  -->
<svg version="1.1" id="Layer_1" xmlns="http://www.w3.org/2000/svg" xmlns:xlink="http://www.w3.org/1999/xlink" x="0px" y="0px"
	 viewBox="0 0 512 512" style="enable-background:new 0 0 512 512;" xml:space="preserve">
<style type="text/css">
	.st0{fill:#FFFFFF;}
</style>
<path class="st0" d="M461.4,50.6c-14.2-14.2-33.5-22.2-53.6-22.2H104.2c-41.9,0-75.8,33.9-75.8,75.8v303.5
	c0,41.9,33.9,75.8,75.8,75.8h303.5c41.9,0,75.8-33.9,75.8-75.8l0,0V104.2C483.5,84.1,475.6,64.9,461.4,50.6z M72.1,72.1
	c8.5-8.6,20.1-13.4,32.1-13.4h303.5c25.1,0.1,45.4,20.4,45.5,45.5v45.5H58.7v-45.5C58.8,92.2,63.6,80.6,72.1,72.1L72.1,72.1z
	 M72.1,439.9c-8.5-8.5-13.3-20.1-13.4-32.1v-45.5h45.5c8.4,0,15.2-6.8,15.2-15.2c0-8.4-6.8-15.2-15.2-15.2H58.7v-60.6h45.5
	c8.4,0,15.2-6.8,15.2-15.2c0-8.4-6.8-15.2-15.2-15.2H58.7v-60.6H165v273.1h-60.7C92.2,453.3,80.6,448.4,72.1,439.9L72.1,439.9z
	 M439.9,439.9c-8.5,8.5-20.1,13.3-32.1,13.4H195.3V180.2h258v227.6C453.2,419.8,448.4,431.4,439.9,439.9z"/>
<circle class="st0" cx="392.5" cy="104.2" r="15.2"/>
<circle class="st0" cx="331.8" cy="104.2" r="15.2"/>
<path class="st0" d="M119.5,119.5h60.7c8.4-0.8,14.5-8.3,13.7-16.6c-0.7-7.2-6.4-13-13.7-13.7h-60.7c-8.4-0.8-15.8,5.3-16.6,13.7
	c-0.8,8.4,5.3,15.8,13.7,16.6C117.5,119.6,118.5,119.6,119.5,119.5z"/>
</svg>
