<svg id="Layer_1" enable-background="new 0 0 80 80" height="512" viewBox="0 0 80 80" width="512" xmlns="http://www.w3.org/2000/svg"><g><g><path d="m70.512 42.338c0 16.382-13.661 29.662-30.513 29.662s-30.513-13.28-30.513-29.662 13.063-20.67 29.915-20.67 31.111 4.288 31.111 20.67z" fill="#df4118"/><path d="m70.514 42.337c0 16.383-13.665 29.663-30.516 29.663-10.266 0-19.35-4.93-24.878-12.489 5.112 3.759 11.479 5.987 18.382 5.987 16.851 0 30.511-13.28 30.511-29.663 0-3.873-.797-7.069-2.239-9.693 5.382 3.15 8.74 8.251 8.74 16.195z" opacity=".15"/><ellipse cx="25.084" cy="34.955" fill="#fff" opacity=".25" rx="10.323" ry="5.298" transform="matrix(.807 -.59 .59 .807 -15.793 21.533)"/><path d="m37.554 20.143s-8.585-2.701-9.346-4.322c0 0-.869 3.01 1.521 6.02 0 0-10.181 1.715-13.55-.677 0 0 7.899 5.385 16.593 4.381 0 0-2.608 4.785-4.456 5.093 0 0 10.433.386 13.91-4.785 0 0 12.063.831 15.106-4.408 0 0-8.368 1.057-11.846-.007 0 0 3.912-2.453 7.064-2.453.001.001-8.584-3.009-14.996 1.158z" fill="#619300"/><path d="m57.333 21.447c-3.04 5.237-15.107 4.409-15.107 4.409-3.477 5.169-13.91 4.784-13.91 4.784.484-.083 1.02-.469 1.546-.994 3.035-.12 9.719-.833 12.364-4.768 0 0 10.339.708 14.285-3.337.515-.058.822-.094.822-.094z" opacity=".15"/><path d="m39.998 22.326-3.243 2.926s-3.28-11.406 6.065-17.252l4.664 4.238s-9.715 6.564-7.486 10.088z" fill="#619300"/><path d="m47.484 12.238s-.562.38-1.385 1.005l-3.28-2.983c-4.966 3.108-6.367 7.777-6.591 11.484-.218-3.843.542-9.959 6.591-13.744z" fill="#fff" opacity=".25"/></g></g></svg>